# xmcd
#
# Track frame offsets: 
#        150
#        10924
#        22874
#        38009
#        55813
#        70398
#        87554
#        102201
#        112900
#        125716
#        145355
#        157173
#
# Disc length: 2196 seconds
#
# Revision: 1
# Processed by: cddbd v1.5.2PL0 Copyright (c) Steve Scherf et al.
# Submitted via: ExactAudioCopy v0.90b4
#
DISCID=a008920c
DTITLE=Wende - No. 9
DYEAR=2009
DGENRE=Algemeen
TTITLE0=Dream
TTITLE1=Wonderful
TTITLE2=Break My Heart
TTITLE3=Roses In June
TTITLE4=Exhale
TTITLE5=NY Is Passing By
TTITLE6=Sycamore Tree
TTITLE7=The Moon Is Out
TTITLE8=Hey
TTITLE9=Sunday Morning
TTITLE10=Yes, We Can
TTITLE11=Beautiful Song
EXTD=
EXTT0=
EXTT1=
EXTT2=
EXTT3=
EXTT4=
EXTT5=
EXTT6=
EXTT7=
EXTT8=
EXTT9=
EXTT10=
EXTT11=
PLAYORDER=
